HIERARCHY
ROOT Hips
{
	OFFSET 0.000000 0.000000 0.000000 
	CHANNELS 6 Xposition Yposition Zposition Yrotation Zrotation Xrotation 
	JOINT Lumbar
	{
		OFFSET 0.000000 0.000000 0.000000 
		CHANNELS 3 Zrotation Xrotation Yrotation
		JOINT Neck
		{
			OFFSET 0.000000 0.445665 0.000000 
			CHANNELS 3 Zrotation Xrotation Yrotation
			End Site
			{
				OFFSET 0.000000 0.227535 0.000000 
			}
		}
		JOINT RightShoulder
		{
			OFFSET 0.019635 0.377685 0.194865 
			CHANNELS 3 Zrotation Xrotation Yrotation
			JOINT RightElbow
			{
				OFFSET 0.000000 -0.243375 0.000000 
				CHANNELS 2 Zrotation Yrotation
				JOINT RightWrist
				{
					OFFSET 0.000000 -0.264825 0.000000 
					CHANNELS 2 Zrotation Xrotation
					End Site
					{
						OFFSET 0.006600 -0.176220 0.000990 
					}
				}
			}
		}
		JOINT LeftShoulder
		{
			OFFSET 0.019635 0.377685 -0.194865 
			CHANNELS 3 Zrotation Xrotation Yrotation
			JOINT LeftElbow
			{
				OFFSET 0.000000 -0.243375 0.000000 
				CHANNELS 2 Zrotation Yrotation
				JOINT LeftWrist
				{
					OFFSET 0.000000 -0.264825 0.000000 
					CHANNELS 2 Zrotation Xrotation
					End Site
					{
						OFFSET 0.006600 -0.176220 -0.000990 
					}
				}
			}
		}
	}
	JOINT RightHip
	{
		OFFSET 0.052140 -0.069960 0.075570 
		CHANNELS 3 Zrotation Xrotation Yrotation
		JOINT RightKnee
		{
			OFFSET 0.000000 -0.402270 0.000000 
			CHANNELS 1 Zrotation
			JOINT RightAnkle
			{
				OFFSET 0.000000 -0.404085 0.000000 
				CHANNELS 3 Zrotation Xrotation Yrotation
				End Site
				{
					OFFSET 0.204105 -0.089430 0.008415 
				}
			}
		}
	}
	JOINT LeftHip
	{
		OFFSET 0.052140 -0.069960 -0.075570 
		CHANNELS 3 Zrotation Xrotation Yrotation
		JOINT LeftKnee
		{
			OFFSET 0.000000 -0.402270 0.000000 
			CHANNELS 1 Zrotation
			JOINT LeftAnkle
			{
				OFFSET 0.000000 -0.404085 0.000000 
				CHANNELS 3 Zrotation Xrotation Yrotation
				End Site
				{
					OFFSET 0.204105 -0.089430 -0.008415 
				}
			}
		}
	}
}
MOTION
Frames: 31
Frame Time: 0.02
0 0.95578 -0 184.12109 0 -3.00872 1.75045 1.53614 -6.50195 -32.66352 6.73534 2.36777 -13.68903 -74.1001 -77.65608 20.32604 75.64414 -15.96213 -2.28763 -2.33584 61.60008 70.28291 22.65841 -77.56522 -29.43985 3.32316 -2.38576 2.43327 5.02576 -8.06522 -1.64929 -3.94061 -7.62966 0.10063 4.24928 -2.84944 -8.50611 3.8686 1.95247 -0.53949
-0.00013 0.95579 3e-05 184.11579 0 -3.00759 1.7486 1.53818 -6.50742 -32.67513 6.73834 2.36215 -13.67983 -74.1005 -77.65606 20.31448 75.61362 -15.94543 -2.28357 -2.287 61.59616 70.23576 22.64957 -77.56665 -29.42445 3.31995 -2.39702 2.42996 5.03017 -8.05569 -1.64962 -3.93935 -7.62306 0.08611 4.24808 -2.82726 -8.49369 3.86869 1.95244 -0.55342
-0.00026 0.95579 7e-05 184.11051 0 -3.00645 1.74677 1.54018 -6.51292 -32.68661 6.74136 2.3565 -13.67093 -74.10094 -77.65636 20.30302 75.58314 -15.92889 -2.27955 -2.23855 61.59226 70.18909 22.64078 -77.56801 -29.40916 3.31677 -2.40825 2.42665 5.03449 -8.04621 -1.64992 -3.93808 -7.61643 0.07164 4.24686 -2.80535 -8.48138 3.86878 1.95243 -0.56713
-0.00039 0.95579 0.0001 184.10537 0 -3.00523 1.74482 1.54214 -6.51858 -32.69763 6.74443 2.35075 -13.66278 -74.10134 -77.65779 20.29195 75.55213 -15.91263 -2.27577 -2.19073 61.58827 70.14371 22.63197 -77.56933 -29.39399 3.31351 -2.41936 2.42327 5.03863 -8.03689 -1.65015 -3.93683 -7.60975 0.05742 4.24551 -2.78423 -8.46938 3.86882 1.95252 -0.58021
-0.00052 0.9558 0.00013 184.09962 0 -3.00441 1.7433 1.54443 -6.52338 -32.711 6.74718 2.34559 -13.6502 -74.10175 -77.65304 20.27893 75.52348 -15.89467 -2.27086 -2.13909 61.58463 70.09124 22.62313 -77.57112 -29.37802 3.31047 -2.43095 2.42025 5.04389 -8.02675 -1.65085 -3.93555 -7.6035 0.04208 4.2448 -2.75886 -8.45571 3.86907 1.9521 -0.59676
-0.00065 0.9558 0.00017 184.09509 0 -3.00276 1.74099 1.54596 -6.53001 -32.71944 6.75063 2.33918 -13.64731 -74.10226 -77.66151 20.26998 75.49017 -15.88044 -2.26827 -2.09591 61.58032 70.05399 22.61447 -77.57177 -29.36387 3.30708 -2.44161 2.41647 5.04669 -8.01834 -1.6505 -3.93431 -7.59623 0.02901 4.24275 -2.74254 -8.44559 3.86893 1.95276 -0.60586
-0.00075 0.9558 0.00019 184.09438 0 -2.99866 1.73544 1.54568 -6.54189 -32.71353 6.7559 2.32919 -13.66954 -74.10195 -77.70678 20.27309 75.43993 -15.87562 -2.27279 -2.07282 61.5733 70.05804 22.60496 -77.5705 -29.3535 3.3016 -2.44922 2.41042 5.04351 -8.01491 -1.6477 -3.93323 -7.58693 0.02282 4.23676 -2.75133 -8.44533 3.86697 1.9566 -0.59489
-0.00086 0.95581 0.00021 184.09482 0 -2.99377 1.72929 1.5446 -6.55558 -32.70274 6.76189 2.31798 -13.70185 -74.1019 -77.76535 20.28019 75.38559 -15.87471 -2.27954 -2.05883 61.56577 70.07758 22.59584 -77.56787 -29.34515 3.29596 -2.45597 2.40364 5.03779 -8.0132 -1.64378 -3.93217 -7.5765 0.0188 4.22945 -2.76922 -8.44865 3.86473 1.96149 -0.57635
-0.00096 0.95581 0.00023 184.09448 0 -2.98935 1.72409 1.5437 -6.56836 -32.69468 6.76765 2.3074 -13.73072 -74.10248 -77.81774 20.28492 75.33579 -15.87262 -2.2848 -2.04282 61.559 70.09057 22.5874 -77.56505 -29.33669 3.29116 -2.46344 2.39731 5.03261 -8.01056 -1.64008 -3.93102 -7.56599 0.01338 4.22287 -2.7829 -8.45028 3.86312 1.96579 -0.56092
-0.00105 0.95582 0.00025 184.0953 0 -2.98444 1.71603 1.54353 -6.58159 -32.68453 6.77306 2.29643 -13.75494 -74.10003 -77.87085 20.29189 75.27502 -15.86809 -2.29205 -2.01798 61.54992 70.1016 22.57541 -77.56558 -29.32491 3.2832 -2.46957 2.39046 5.0297 -8.00853 -1.63758 -3.93016 -7.55777 0.0097 4.21574 -2.79696 -8.45217 3.85944 1.97059 -0.54675
-0.00118 0.95582 0.00027 184.09388 0 -2.98038 1.71377 1.54168 -6.59422 -32.67746 6.77928 2.28606 -13.791 -74.10378 -77.92544 20.29527 75.23574 -15.86946 -2.29573 -2.01357 61.54564 70.12024 22.57083 -77.55891 -29.32039 3.28164 -2.47824 2.38454 5.02185 -8.00567 -1.63235 -3.92876 -7.5448 0.00293 4.20945 -2.81231 -8.4544 3.85994 1.97459 -0.52832
-0.00145 0.9558 0.00027 184.08681 0 -2.97879 1.72786 1.53517 -6.60559 -32.68096 6.78838 2.27715 -13.85921 -74.12623 -77.98232 20.28677 75.26019 -15.88706 -2.28859 -2.06447 61.55381 70.15751 22.58742 -77.53189 -29.33657 3.2991 -2.49448 2.3812 4.9977 -7.99976 -1.61957 -3.92551 -7.5166 -0.01301 4.20569 -2.82971 -8.45629 3.87272 1.97609 -0.49869
-0.00175 0.95579 0.00026 184.07733 0 -2.9781 1.74777 1.52704 -6.61617 -32.68754 6.79815 2.269 -13.93854 -74.15463 -78.03983 20.27468 75.30583 -15.91029 -2.27786 -2.13535 61.56696 70.2016 22.61132 -77.49786 -29.35977 3.32277 -2.51325 2.37885 4.96924 -7.99303 -1.60414 -3.9218 -7.48411 -0.03209 4.20284 -2.84798 -8.45846 3.88962 1.97677 -0.46525
-0.00204 0.95577 0.00025 184.06842 0 -2.97703 1.76489 1.51979 -6.62655 -32.69213 6.80705 2.26084 -14.01161 -74.17921 -78.09625 20.26494 75.33954 -15.93038 -2.26904 -2.1964 61.5785 70.2417 22.63136 -77.46749 -29.37896 3.34273 -2.53064 2.37617 4.94496 -7.9869 -1.59015 -3.91854 -7.45519 -0.04965 4.19965 -2.8654 -8.46077 3.90413 1.97781 -0.43444
-0.00233 0.95575 0.00025 184.06165 0 -2.97582 1.78261 1.51192 -6.63929 -32.69905 6.81828 2.25121 -14.09047 -74.20842 -78.15707 20.25241 75.38269 -15.95311 -2.25915 -2.26113 61.58748 70.28628 22.65367 -77.43486 -29.40161 3.36639 -2.54896 2.37298 4.91136 -7.97987 -1.57517 -3.91426 -7.41944 -0.06754 4.19612 -2.88506 -8.46211 3.92068 1.97884 -0.39968
-0.00262 0.95574 0.00025 184.04997 0 -2.9751 1.80046 1.50493 -6.64699 -32.7019 6.82493 2.24483 -14.15937 -74.22952 -78.20804 20.24464 75.41144 -15.97157 -2.2506 -2.32259 61.60271 70.32275 22.67301 -77.40556 -29.41879 3.38387 -2.56596 2.37108 4.89599 -7.97453 -1.5616 -3.91199 -7.39683 -0.08552 4.19351 -2.90015 -8.46547 3.93413 1.9798 -0.37219
-0.00292 0.95571 0.00024 184.02407 0 -2.97561 1.81744 1.50105 -6.64016 -32.69279 6.81756 2.24731 -14.20167 -74.22575 -78.2374 20.25217 75.39371 -15.9773 -2.2465 -2.37194 61.6364 70.33656 22.68228 -77.38493 -29.41829 3.38226 -2.57864 2.37259 4.93389 -7.97361 -1.55291 -3.91541 -7.41237 -0.10307 4.1933 -2.90228 -8.47456 3.9365 1.97971 -0.36707
-0.00321 0.95569 0.00024 183.99355 0 -2.97657 1.83432 1.49806 -6.62842 -32.67948 6.80576 2.25303 -14.23293 -74.21379 -78.25578 20.26436 75.36107 -15.97846 -2.2439 -2.41687 61.67575 70.34159 22.68831 -77.36836 -29.41221 3.3743 -2.58991 2.37535 4.98994 -7.97449 -1.54568 -3.92085 -7.44113 -0.1206 4.19396 -2.89979 -8.48563 3.93586 1.97974 -0.3692
-0.00351 0.95567 0.00024 183.9659 0 -2.97728 1.85115 1.49448 -6.61942 -32.6681 6.79679 2.25723 -14.26675 -74.20631 -78.27524 20.27352 75.33628 -15.98141 -2.24068 -2.46264 61.71096 70.3497 22.69591 -77.35136 -29.40918 3.36956 -2.60184 2.3775 5.03651 -7.97484 -1.53758 -3.92535 -7.46329 -0.13813 4.19419 -2.89937 -8.49563 3.93762 1.98043 -0.36713
-0.0038 0.95564 0.00024 183.9348 0 -2.97819 1.86864 1.49162 -6.60823 -32.65677 6.78446 2.26166 -14.31103 -74.19593 -78.31086 20.28633 75.30767 -15.98573 -2.23703 -2.51422 61.75306 70.36207 22.70344 -77.32795 -29.4041 3.36359 -2.61374 2.37991 5.08822 -7.97398 -1.53025 -3.92995 -7.48778 -0.15587 4.19462 -2.89895 -8.50636 3.93526 1.97818 -0.36867
-0.0041 0.95562 0.00024 183.90995 0 -2.97878 1.88461 1.4875 -6.60047 -32.64425 6.77801 2.26636 -14.33112 -74.18945 -78.31068 20.29279 75.28321 -15.98608 -2.23472 -2.55219 61.78198 70.36317 22.71015 -77.3192 -29.40201 3.35862 -2.62539 2.38202 5.13348 -7.97602 -1.52169 -3.93483 -7.51064 -0.17307 4.1948 -2.89763 -8.51605 3.94061 1.98195 -0.36457
-0.0044 0.95561 0.00025 183.9025 0 -2.97851 1.89681 1.47953 -6.60328 -32.62985 6.78939 2.27107 -14.28398 -74.19692 -78.21012 20.2797 75.27393 -15.9763 -2.23539 -2.55508 61.77381 70.33732 22.71645 -77.34781 -29.40844 3.35757 -2.63621 2.38324 5.15735 -7.98623 -1.50952 -3.94 -7.52567 -0.18918 4.19447 -2.89317 -8.52213 3.96873 2.00346 -0.34229
-0.00471 0.95559 0.00026 183.90168 0 -2.97788 1.90737 1.4703 -6.60975 -32.61434 6.80674 2.27592 -14.21336 -74.20839 -78.07464 20.26026 75.26926 -15.9627 -2.23741 -2.54409 61.75191 70.30013 22.72196 -77.39148 -29.41822 3.35776 -2.64689 2.38406 5.17395 -7.9992 -1.49603 -3.94539 -7.53865 -0.20467 4.19379 -2.88827 -8.52717 4.00454 2.03084 -0.31427
-0.00501 0.95557 0.00027 183.89849 0 -2.97734 1.9184 1.46176 -6.61467 -32.59904 6.82098 2.28066 -14.15557 -74.21714 -77.95795 20.24425 75.26229 -15.95104 -2.23905 -2.53833 61.73595 70.26664 22.7269 -77.42967 -29.42717 3.35763 -2.65794 2.3849 5.19332 -8.01049 -1.48306 -3.95069 -7.5527 -0.2202 4.19304 -2.88479 -8.53285 4.03631 2.05478 -0.28945
-0.00531 0.95556 0.00027 183.89245 0 -2.97714 1.93065 1.45277 -6.61899 -32.58472 6.83668 2.28571 -14.08855 -74.22919 -77.82874 20.22594 75.25554 -15.93844 -2.2398 -2.5368 61.7219 70.23854 22.73502 -77.46217 -29.43311 3.35634 -2.66769 2.38648 5.21558 -8.02357 -1.47048 -3.95603 -7.56668 -0.23676 4.19331 -2.87611 -8.53784 4.07031 2.08193 -0.2624
-0.00561 0.95554 0.0003 183.89392 0 -2.97613 1.93992 1.44437 -6.62543 -32.56829 6.85092 2.29008 -14.035 -74.2357 -77.71722 20.21104 75.24979 -15.92684 -2.24265 -2.52344 61.7 70.19719 22.73717 -77.51016 -29.44608 3.35772 -2.68007 2.38637 5.22983 -8.03365 -1.45675 -3.9613 -7.58005 -0.25099 4.19132 -2.87806 -8.54406 4.10152 2.10382 -0.23853
-0.00589 0.95552 0.00037 183.9152 0 -2.97306 1.94173 1.43812 -6.63743 -32.54513 6.85882 2.2927 -14.0268 -74.22356 -77.66485 20.2061 75.24422 -15.91982 -2.25162 -2.47906 61.6639 70.11697 22.71682 -77.59661 -29.47837 3.36736 -2.70044 2.38203 5.22394 -8.03398 -1.44029 -3.96634 -7.59311 -0.25927 4.18349 -2.91107 -8.55329 4.12328 2.10944 -0.22481
-0.00616 0.95549 0.00047 183.94367 0 -2.96916 1.94051 1.43246 -6.65137 -32.52006 6.86523 2.29458 -14.03238 -74.20611 -77.63089 20.2053 75.23978 -15.91378 -2.26253 -2.42368 61.61938 70.02473 22.692 -77.69852 -29.51748 3.37951 -2.72333 2.37592 5.21018 -8.03135 -1.42268 -3.97128 -7.60543 -0.26515 4.17334 -2.95453 -8.5639 4.14196 2.10963 -0.21443
-0.00643 0.95546 0.00056 183.96845 0 -2.96558 1.94051 1.42638 -6.66402 -32.49677 6.87291 2.29667 -14.03036 -74.19276 -77.58783 20.2029 75.23596 -15.90676 -2.27211 -2.37446 61.5762 69.94141 22.67286 -77.79341 -29.55301 3.38971 -2.74465 2.37037 5.1997 -8.03059 -1.40549 -3.97623 -7.6174 -0.27192 4.16407 -2.99219 -8.57427 4.16198 2.11249 -0.20256
-0.00671 0.95544 0.00064 183.99534 0 -2.96223 1.94125 1.42088 -6.67845 -32.46992 6.87829 2.2993 -14.03393 -74.17271 -77.54802 20.19787 75.2278 -15.90192 -2.28364 -2.31959 61.54377 69.84331 22.63687 -77.88765 -29.59077 3.40314 -2.76782 2.36584 5.18991 -8.02768 -1.38867 -3.98137 -7.63206 -0.27953 4.15557 -3.03427 -8.58295 4.18252 2.11466 -0.19052
-0.00697 0.95541 0.00075 184.01932 0 -2.95822 1.93959 1.41434 -6.68966 -32.44964 6.88802 2.30063 -14.0285 -74.16496 -77.50457 20.20089 75.22854 -15.89276 -2.29156 -2.27439 61.48619 69.77303 22.63672 -77.98814 -29.62538 3.41072 -2.78768 2.35876 5.17728 -8.02856 -1.37086 -3.98608 -7.64116 -0.28482 4.14487 -3.06965 -8.59553 4.20117 2.11695 -0.17953
